#N canvas 242 236 1364 821 12;
#X obj 634 60 cnv 15 538 354 empty empty empty 20 12 0 14 -52338 -66577
0;
#X obj 642 134 hradio 15 0 0 16 empty squares empty 0 -8 0 10 -262144
-1 -1 0;
#X obj 525 566 *~;
#X obj 645 381 hsl 128 15 0 127 0 0 4th empty empty -2 -8 0 10 -262144
-1 -1 0 1;
#X obj 645 354 hsl 128 15 0 127 0 0 3rd empty empty -2 -8 0 10 -262144
-1 -1 0 1;
#X obj 645 326 hsl 128 15 0 127 0 0 2nd empty empty -2 -8 0 10 -262144
-1 -1 0 1;
#X obj 645 296 hsl 128 15 0 127 0 0 1st empty ARPEGGIO 5 -10 0 12 -262144
-1 -1 0 1;
#N canvas 0 0 450 300 Envy 0;
#X obj 75 55 inlet;
#X obj 75 84 bng 15 250 50 0 empty empty empty 17 7 0 10 -262144 -1
-1;
#X obj 75 128 pack 1 5;
#X obj 115 205 pack 0 500;
#X obj 75 254 line~;
#X obj 75 283 *~;
#X obj 75 312 *~;
#X obj 75 341 outlet~;
#X obj 115 166 del 30;
#X obj 128 86 inlet;
#X obj 182 166 inlet;
#X connect 0 0 1 0;
#X connect 1 0 2 0;
#X connect 1 0 8 0;
#X connect 2 0 4 0;
#X connect 3 0 4 0;
#X connect 4 0 5 0;
#X connect 4 0 5 1;
#X connect 5 0 6 0;
#X connect 5 0 6 1;
#X connect 6 0 7 0;
#X connect 8 0 3 0;
#X connect 9 0 2 1;
#X connect 10 0 3 1;
#X restore 664 536 pd Envy;
#X obj 645 208 hsl 128 15 10 127 0 0 att-- att ATTACK 5 -10 0 12 -262144
-1 -1 0 1;
#X obj 645 244 hsl 128 15 0 1000 0 0 dec-- dec DECAY 5 -10 0 12 -262144
-1 -1 0 1;
#X obj 642 110 hsl 128 15 0 15 0 0 co2-- co2 OCTAVE 5 -10 0 12 -262144
-1 -1 847 1;
#X obj 77 59 metro 50;
#X obj 77 111 sel 1;
#X obj 642 79 hsl 128 15 1 12 0 0 co1-- co1 SPEED 5 -10 1 12 -262144
-1 -1 3464 1;
#X obj 645 171 hsl 128 15 0.01 0.2 0 0 ton-- ton TONE 5 -10 0 12 -262144
-1 -1 0 1;
#X obj 77 85 counter, f 11;
#X obj 77 138 counter, f 15;
#X obj 288 177 s co1;
#X obj 338 177 s co2;
#X obj 494 221 r notez;
#X obj 380 177 s ton;
#X obj 422 177 s att;
#X obj 465 177 s dec;
#X obj 288 48 / 10.5;
#X obj 338 73 / 8.5;
#X obj 465 148 / 0.13;
#X obj 380 100 / 635;
#X obj 857 79 tgl 25 0 arp-sta empty ON/OFF 35 12 0 15 -262144 -1 -1
0 1;
#X obj 841 79 cnv 15 15 25 empty empty empty 20 12 0 14 -192158 -66577
0;
#X obj 803 189 cnv 15 15 225 empty empty empty 20 12 0 14 -192158 -66577
0;
#X obj 819 249 cnv 15 15 150 empty empty empty 20 12 0 14 -216811 -66577
0;
#X obj 825 79 cnv 15 15 25 empty empty empty 20 12 0 14 -216811 -66577
0;
#X obj 57 349 f;
#X obj 57 319 f;
#X obj 57 289 f;
#X obj 57 259 f;
#X obj 66 405 f;
#X obj 66 435 f;
#X obj 100 435 + 12;
#X obj 66 465 f;
#X obj 66 495 f;
#X obj 100 495 + 12;
#X obj 100 465 + 12;
#X obj 100 405 + 12;
#X obj 136 535 f;
#X obj 136 565 f;
#X obj 136 595 f;
#X obj 136 625 f;
#X obj 170 535 + 24;
#X obj 170 565 + 24;
#X obj 170 595 + 24;
#X obj 170 625 + 24;
#X obj 206 655 f;
#X obj 206 685 f;
#X obj 206 715 f;
#X obj 206 745 f;
#X obj 240 655 + 36;
#X obj 240 685 + 36;
#X obj 240 715 + 36;
#X obj 240 745 + 36;
#X obj 525 479 t f f b;
#X obj 288 22 r arp-spe;
#X obj 338 48 r arp-8ct;
#X obj 422 100 r sy-att;
#X obj 465 124 r sy-dec;
#X obj 380 74 r sy-ton;
#X obj 77 30 r arp-sta;
#X obj 151 56 r co1--;
#X obj 179 106 r co2--;
#X obj 97 177 s squares;
#X obj 613 487 r ton--;
#X obj 687 482 r att--;
#X obj 710 508 r dec--;
#N canvas 299 296 1013 761 NiceSynth6 0;
#X obj 265 194 hsl 128 15 0.01 0.2 0 0 empty empty empty -2 -8 0 10
-262144 -1 -1 0 1;
#X obj 348 495 hsl 128 15 0.005 0.1 0 0 empty empty empty -2 -8 0 10
-262144 -1 -1 10695 1;
#X obj 265 215 s \$0-indice;
#X obj 414 442 hsl 128 15 0.05 0.3 0 0 empty empty empty -2 -8 0 10
-262144 -1 -1 3302 1;
#X obj 414 465 s \$0-Release;
#X obj 348 517 s \$0-Attack;
#X obj 122 210 poly 4 1;
#X obj 122 242 pack f f f;
#X obj 122 269 route 1 2 3 4;
#X obj 122 488 *~ 0.12;
#X obj 183 499 *~ 0.12;
#N canvas 84 394 806 579 voice 0;
#X obj 119 515 *~;
#X obj 50 253 mtof;
#X obj 269 247 mtof;
#X obj 269 222 +, f 5;
#X obj 268 120 * 36;
#X obj 268 164 t b f;
#X obj 269 196 i;
#X obj 268 142 + 12;
#X obj 112 316 *~;
#X obj 92 390 +~;
#X obj 102 466 osc~;
#X obj 107 273 osc~;
#X obj 284 274 r \$0-indice;
#X obj 268 98 r \$0-fmod;
#X obj 107 365 *~;
#X obj 450 203 pack f f;
#X obj 562 221 pack f f;
#X obj 553 173 sel 0;
#X msg 504 247 0 \$2;
#X msg 395 246 1 \$2;
#X obj 499 95 r \$0-Attack;
#X obj 586 92 r \$0-Release;
#X obj 283 304 * 5000;
#X obj 565 272 r \$1-stop;
#X obj 499 117 * 15000;
#X obj 586 114 * 15000;
#X obj 480 284 line~;
#X msg 548 313 stop;
#X obj 72 60 inlet;
#X obj 121 542 outlet~;
#X obj 63 128 unpack f f;
#X connect 0 0 29 0;
#X connect 1 0 9 0;
#X connect 2 0 11 0;
#X connect 3 0 2 0;
#X connect 4 0 7 0;
#X connect 5 0 6 0;
#X connect 5 1 3 1;
#X connect 6 0 3 0;
#X connect 7 0 5 0;
#X connect 8 0 14 0;
#X connect 9 0 10 0;
#X connect 10 0 0 0;
#X connect 11 0 8 0;
#X connect 12 0 22 0;
#X connect 13 0 4 0;
#X connect 14 0 9 1;
#X connect 15 0 19 0;
#X connect 16 0 18 0;
#X connect 17 0 16 0;
#X connect 17 1 15 0;
#X connect 18 0 26 0;
#X connect 19 0 26 0;
#X connect 20 0 24 0;
#X connect 21 0 25 0;
#X connect 22 0 8 1;
#X connect 23 0 27 0;
#X connect 24 0 15 1;
#X connect 25 0 16 1;
#X connect 26 0 0 1;
#X connect 26 0 14 1;
#X connect 27 0 26 0;
#X connect 28 0 30 0;
#X connect 30 0 1 0;
#X connect 30 0 6 0;
#X connect 30 1 17 0;
#X restore 122 324 pd voice;
#N canvas 84 394 806 579 voice 0;
#X obj 119 515 *~;
#X obj 50 253 mtof;
#X obj 269 247 mtof;
#X obj 269 222 +, f 5;
#X obj 269 196 i;
#X obj 112 316 *~;
#X obj 92 390 +~;
#X obj 102 466 osc~;
#X obj 107 273 osc~;
#X obj 284 274 r \$0-indice;
#X obj 107 365 *~;
#X obj 450 203 pack f f;
#X obj 562 221 pack f f;
#X obj 553 173 sel 0;
#X msg 504 247 0 \$2;
#X msg 395 246 1 \$2;
#X obj 499 95 r \$0-Attack;
#X obj 586 92 r \$0-Release;
#X obj 283 304 * 5000;
#X obj 565 272 r \$1-stop;
#X obj 499 117 * 15000;
#X obj 586 114 * 15000;
#X obj 480 284 line~;
#X msg 548 313 stop;
#X obj 72 60 inlet;
#X obj 121 542 outlet~;
#X obj 63 128 unpack f f;
#X connect 0 0 25 0;
#X connect 1 0 6 0;
#X connect 2 0 8 0;
#X connect 3 0 2 0;
#X connect 4 0 3 0;
#X connect 5 0 10 0;
#X connect 6 0 7 0;
#X connect 7 0 0 0;
#X connect 8 0 5 0;
#X connect 9 0 18 0;
#X connect 10 0 6 1;
#X connect 11 0 15 0;
#X connect 12 0 14 0;
#X connect 13 0 12 0;
#X connect 13 1 11 0;
#X connect 14 0 22 0;
#X connect 15 0 22 0;
#X connect 16 0 20 0;
#X connect 17 0 21 0;
#X connect 18 0 5 1;
#X connect 19 0 23 0;
#X connect 20 0 11 1;
#X connect 21 0 12 1;
#X connect 22 0 0 1;
#X connect 22 0 10 1;
#X connect 23 0 22 0;
#X connect 24 0 26 0;
#X connect 26 0 1 0;
#X connect 26 0 4 0;
#X connect 26 1 13 0;
#X restore 190 315 pd voice;
#N canvas 84 394 806 579 voice 0;
#X obj 119 515 *~;
#X obj 50 253 mtof;
#X obj 269 247 mtof;
#X obj 269 222 +, f 5;
#X obj 269 196 i;
#X obj 112 316 *~;
#X obj 92 390 +~;
#X obj 102 466 osc~;
#X obj 107 273 osc~;
#X obj 284 274 r \$0-indice;
#X obj 107 365 *~;
#X obj 450 203 pack f f;
#X obj 562 221 pack f f;
#X obj 553 173 sel 0;
#X msg 504 247 0 \$2;
#X msg 395 246 1 \$2;
#X obj 499 95 r \$0-Attack;
#X obj 586 92 r \$0-Release;
#X obj 283 304 * 5000;
#X obj 565 272 r \$1-stop;
#X obj 499 117 * 15000;
#X obj 586 114 * 15000;
#X obj 480 284 line~;
#X msg 548 313 stop;
#X obj 72 60 inlet;
#X obj 121 542 outlet~;
#X obj 63 128 unpack f f;
#X connect 0 0 25 0;
#X connect 1 0 6 0;
#X connect 2 0 8 0;
#X connect 3 0 2 0;
#X connect 4 0 3 0;
#X connect 5 0 10 0;
#X connect 6 0 7 0;
#X connect 7 0 0 0;
#X connect 8 0 5 0;
#X connect 9 0 18 0;
#X connect 10 0 6 1;
#X connect 11 0 15 0;
#X connect 12 0 14 0;
#X connect 13 0 12 0;
#X connect 13 1 11 0;
#X connect 14 0 22 0;
#X connect 15 0 22 0;
#X connect 16 0 20 0;
#X connect 17 0 21 0;
#X connect 18 0 5 1;
#X connect 19 0 23 0;
#X connect 20 0 11 1;
#X connect 21 0 12 1;
#X connect 22 0 0 1;
#X connect 22 0 10 1;
#X connect 23 0 22 0;
#X connect 24 0 26 0;
#X connect 26 0 4 0;
#X connect 26 0 1 0;
#X connect 26 1 13 0;
#X restore 259 308 pd voice;
#N canvas 84 394 806 579 voice 0;
#X obj 119 515 *~;
#X obj 50 253 mtof;
#X obj 269 247 mtof;
#X obj 269 222 +, f 5;
#X obj 269 196 i;
#X obj 112 316 *~;
#X obj 92 390 +~;
#X obj 102 466 osc~;
#X obj 107 273 osc~;
#X obj 284 274 r \$0-indice;
#X obj 107 365 *~;
#X obj 450 203 pack f f;
#X obj 562 221 pack f f;
#X obj 553 173 sel 0;
#X msg 504 247 0 \$2;
#X msg 395 246 1 \$2;
#X obj 499 95 r \$0-Attack;
#X obj 586 92 r \$0-Release;
#X obj 283 304 * 5000;
#X obj 565 272 r \$1-stop;
#X obj 499 117 * 15000;
#X obj 586 114 * 15000;
#X obj 480 284 line~;
#X msg 548 313 stop;
#X obj 72 60 inlet;
#X obj 121 542 outlet~;
#X obj 63 128 unpack f f;
#X connect 0 0 25 0;
#X connect 1 0 6 0;
#X connect 2 0 8 0;
#X connect 3 0 2 0;
#X connect 4 0 3 0;
#X connect 5 0 10 0;
#X connect 6 0 7 0;
#X connect 7 0 0 0;
#X connect 8 0 5 0;
#X connect 9 0 18 0;
#X connect 10 0 6 1;
#X connect 11 0 15 0;
#X connect 12 0 14 0;
#X connect 13 0 12 0;
#X connect 13 1 11 0;
#X connect 14 0 22 0;
#X connect 15 0 22 0;
#X connect 16 0 20 0;
#X connect 17 0 21 0;
#X connect 18 0 5 1;
#X connect 19 0 23 0;
#X connect 20 0 11 1;
#X connect 21 0 12 1;
#X connect 22 0 0 1;
#X connect 22 0 10 1;
#X connect 23 0 22 0;
#X connect 24 0 26 0;
#X connect 26 0 4 0;
#X connect 26 0 1 0;
#X connect 26 1 13 0;
#X restore 328 294 pd voice;
#X obj 122 622 outlet~;
#X obj 183 625 outlet~;
#X obj 122 131 inlet;
#X obj 175 131 inlet;
#X msg 175 160 100;
#X obj 348 376 loadbang;
#X msg 414 415 0.115;
#X msg 348 405 0.085;
#X obj 245 517 *~ 0.03;
#X obj 265 126 inlet;
#X connect 0 0 2 0;
#X connect 1 0 5 0;
#X connect 3 0 4 0;
#X connect 6 0 7 0;
#X connect 6 1 7 1;
#X connect 6 2 7 2;
#X connect 7 0 8 0;
#X connect 8 0 11 0;
#X connect 8 1 12 0;
#X connect 8 2 13 0;
#X connect 8 3 14 0;
#X connect 9 0 15 0;
#X connect 10 0 16 0;
#X connect 11 0 9 0;
#X connect 11 0 10 0;
#X connect 11 0 23 0;
#X connect 12 0 9 0;
#X connect 12 0 10 0;
#X connect 12 0 23 0;
#X connect 13 0 9 0;
#X connect 13 0 10 0;
#X connect 13 0 23 0;
#X connect 14 0 9 0;
#X connect 14 0 10 0;
#X connect 14 0 23 0;
#X connect 17 0 6 0;
#X connect 18 0 19 0;
#X connect 19 0 6 1;
#X connect 20 0 21 0;
#X connect 20 0 22 0;
#X connect 21 0 3 0;
#X connect 22 0 1 0;
#X connect 23 0 16 0;
#X connect 23 0 15 0;
#X connect 24 0 0 0;
#X restore 525 526 pd NiceSynth6;
#X obj 408 245 r 1st;
#X obj 418 275 r 2nd;
#X obj 428 305 r 3rd;
#X obj 438 335 r 4th;
#X obj 525 595 *~ 0.6;
#X obj 494 248 unpack f f f f;
#X obj 902 168 bng 20 250 50 0 Cmaj empty empty 17 7 0 10 -262144 -1
-1;
#X text 863 168 C MAJ;
#X obj 972 168 bng 20 250 50 0 Cmin empty empty 17 7 0 10 -262144 -1
-1;
#X text 933 168 C Min;
#X obj 1049 178 bng 20 250 50 0 C#maj empty empty 17 7 0 10 -262144
-1 -1;
#X obj 1126 178 bng 20 250 50 0 C#min empty empty 17 7 0 10 -262144
-1 -1;
#X text 1003 178 C# MAJ;
#X text 1080 178 C# Min;
#X obj 902 198 bng 20 250 50 0 Dmaj empty empty 17 7 0 10 -262144 -1
-1;
#X obj 972 198 bng 20 250 50 0 Dmin empty empty 17 7 0 10 -262144 -1
-1;
#X obj 1049 208 bng 20 250 50 0 D#maj empty empty 17 7 0 10 -262144
-1 -1;
#X obj 1126 208 bng 20 250 50 0 D#min empty empty 17 7 0 10 -262144
-1 -1;
#X text 863 198 D MAJ;
#X text 933 198 D Min;
#X text 1003 208 D# MAJ;
#X text 1080 208 D# Min;
#X obj 902 226 bng 20 250 50 0 Emaj empty empty 17 7 0 10 -262144 -1
-1;
#X obj 972 226 bng 20 250 50 0 Emin empty empty 17 7 0 10 -262144 -1
-1;
#X text 863 226 E MAJ;
#X text 933 226 E Min;
#X obj 903 252 bng 20 250 50 0 Fmaj empty empty 17 7 0 10 -262144 -1
-1;
#X obj 973 252 bng 20 250 50 0 Fmin empty empty 17 7 0 10 -262144 -1
-1;
#X obj 1050 262 bng 20 250 50 0 F#maj empty empty 17 7 0 10 -262144
-1 -1;
#X obj 1127 262 bng 20 250 50 0 F#min empty empty 17 7 0 10 -262144
-1 -1;
#X text 864 252 F MAJ;
#X text 934 252 F Min;
#X text 1004 262 F# MAJ;
#X text 1081 262 F# Min;
#X obj 903 280 bng 20 250 50 0 Gmaj empty empty 17 7 0 10 -262144 -1
-1;
#X obj 973 280 bng 20 250 50 0 Gmin empty empty 17 7 0 10 -262144 -1
-1;
#X obj 1050 290 bng 20 250 50 0 G#maj empty empty 17 7 0 10 -262144
-1 -1;
#X obj 1127 290 bng 20 250 50 0 G#min empty empty 17 7 0 10 -262144
-1 -1;
#X text 864 280 G MAJ;
#X text 934 280 G Min;
#X text 1004 290 G# MAJ;
#X text 1081 290 G# Min;
#X obj 904 308 bng 20 250 50 0 Amaj empty empty 17 7 0 10 -262144 -1
-1;
#X obj 974 308 bng 20 250 50 0 Amin empty empty 17 7 0 10 -262144 -1
-1;
#X obj 1051 318 bng 20 250 50 0 A#maj empty empty 17 7 0 10 -262144
-1 -1;
#X obj 1128 318 bng 20 250 50 0 A#min empty empty 17 7 0 10 -262144
-1 -1;
#X text 865 308 A MAJ;
#X text 935 308 A Min;
#X text 1005 318 A# MAJ;
#X text 1082 318 A# Min;
#X obj 904 338 bng 20 250 50 0 Bmaj empty empty 17 7 0 10 -262144 -1
-1;
#X obj 974 338 bng 20 250 50 0 Bmin empty empty 17 7 0 10 -262144 -1
-1;
#X text 865 338 B MAJ;
#X text 935 338 B Min;
#X obj 77 211 sel 0 1 2 3 4 5 6 7 8 9 10 11 12 13 14 15;
#X obj 1022 60 cnv 15 150 25 empty empty empty 20 12 0 14 -192158 -66577
0;
#X obj 1072 84 cnv 15 100 25 empty empty empty 20 12 0 14 -216811 -66577
0;
#X obj 819 399 cnv 15 353 15 empty empty empty 20 12 0 14 -192158 -66577
0;
#X obj 919 383 cnv 15 253 15 empty empty empty 20 12 0 14 -216811 -66577
0;
#N canvas 415 225 1108 789 MIDInotes 1;
#X msg 116 88 48 52 55 59;
#X text 77 88 C maj;
#X msg 126 158 50 54 57 61;
#X text 87 158 D maj;
#X text 77 238 E maj;
#X msg 116 238 52 56 59 63;
#X text 77 316 F maj;
#X msg 116 316 53 57 60 64;
#X text 87 398 G maj;
#X msg 126 398 55 59 62 66;
#X text 67 468 A maj;
#X msg 106 468 57 61 64 68;
#X text 77 558 B maj;
#X msg 116 558 59 63 66 70;
#X text 497 78 C min;
#X text 507 148 D min;
#X text 497 228 E min;
#X text 497 306 F min;
#X text 507 388 G min;
#X text 487 458 A min;
#X text 497 548 B min;
#X msg 536 78 48 51 55 58;
#X msg 546 148 50 53 57 60;
#X msg 536 228 52 55 59 62;
#X msg 536 306 53 56 60 63;
#X msg 546 388 55 58 62 65;
#X msg 526 458 57 60 64 67;
#X msg 536 548 59 62 66 69;
#X msg 343 108 49 53 56 60;
#X msg 353 178 51 55 58 62;
#X msg 343 336 54 58 61 65;
#X msg 353 418 56 60 63 67;
#X msg 333 488 58 62 65 69;
#X text 297 108 C# maj;
#X text 307 178 D# maj;
#X text 297 336 F# maj;
#X text 307 418 G# maj;
#X text 287 488 A# maj;
#X text 727 108 C# min;
#X text 737 178 D# min;
#X text 727 336 F# min;
#X text 737 418 G# min;
#X text 717 488 A# min;
#X msg 773 108 49 52 56 59;
#X msg 783 178 51 54 58 61;
#X msg 773 336 54 57 61 64;
#X msg 783 418 56 59 63 66;
#X msg 763 488 58 61 65 68;
#X obj 116 50 bng 20 250 50 0 empty Cmaj empty 17 7 0 10 -262144 -1
-1;
#X obj 536 43 bng 20 250 50 0 empty Cmin empty 17 7 0 10 -262144 -1
-1;
#X obj 343 71 bng 20 250 50 0 empty C#maj empty 17 7 0 10 -262144 -1
-1;
#X obj 773 73 bng 20 250 50 0 empty C#min empty 17 7 0 10 -262144 -1
-1;
#X obj 126 130 bng 20 250 50 0 empty Dmaj empty 17 7 0 10 -262144 -1
-1;
#X obj 546 115 bng 20 250 50 0 empty Dmin empty 17 7 0 10 -262144 -1
-1;
#X obj 353 147 bng 20 250 50 0 empty D#maj empty 17 7 0 10 -262144
-1 -1;
#X obj 783 145 bng 20 250 50 0 empty D#min empty 17 7 0 10 -262144
-1 -1;
#X obj 116 206 bng 20 250 50 0 empty Emaj empty 17 7 0 10 -262144 -1
-1;
#X obj 536 194 bng 20 250 50 0 empty Emin empty 17 7 0 10 -262144 -1
-1;
#X obj 116 283 bng 20 250 50 0 empty Fmaj empty 17 7 0 10 -262144 -1
-1;
#X obj 536 274 bng 20 250 50 0 empty Fmin empty 17 7 0 10 -262144 -1
-1;
#X obj 343 302 bng 20 250 50 0 empty F#maj empty 17 7 0 10 -262144
-1 -1;
#X obj 773 302 bng 20 250 50 0 empty F#min empty 17 7 0 10 -262144
-1 -1;
#X obj 126 362 bng 20 250 50 0 empty Gmaj empty 17 7 0 10 -262144 -1
-1;
#X obj 546 353 bng 20 250 50 0 empty Gmin empty 17 7 0 10 -262144 -1
-1;
#X obj 353 383 bng 20 250 50 0 empty G#maj empty 17 7 0 10 -262144
-1 -1;
#X obj 783 382 bng 20 250 50 0 empty G#min empty 17 7 0 10 -262144
-1 -1;
#X obj 106 437 bng 20 250 50 0 empty Amaj empty 17 7 0 10 -262144 -1
-1;
#X obj 526 421 bng 20 250 50 0 empty Amin empty 17 7 0 10 -262144 -1
-1;
#X obj 333 455 bng 20 250 50 0 empty A#maj empty 17 7 0 10 -262144
-1 -1;
#X obj 763 451 bng 20 250 50 0 empty A#min empty 17 7 0 10 -262144
-1 -1;
#X obj 116 521 bng 20 250 50 0 empty Bmaj empty 17 7 0 10 -262144 -1
-1;
#X obj 536 515 bng 20 250 50 0 empty Bmin empty 17 7 0 10 -262144 -1
-1;
#X obj 507 723 s notez;
#X obj 268 614 unpack f f f f;
#X obj 507 699 pack f f f f;
#X connect 0 0 73 0;
#X connect 2 0 73 0;
#X connect 5 0 73 0;
#X connect 7 0 73 0;
#X connect 9 0 73 0;
#X connect 11 0 73 0;
#X connect 13 0 73 0;
#X connect 21 0 73 0;
#X connect 22 0 73 0;
#X connect 23 0 73 0;
#X connect 24 0 73 0;
#X connect 25 0 73 0;
#X connect 26 0 73 0;
#X connect 27 0 73 0;
#X connect 28 0 73 0;
#X connect 29 0 73 0;
#X connect 30 0 73 0;
#X connect 31 0 73 0;
#X connect 32 0 73 0;
#X connect 43 0 73 0;
#X connect 44 0 73 0;
#X connect 45 0 73 0;
#X connect 46 0 73 0;
#X connect 47 0 73 0;
#X connect 48 0 0 0;
#X connect 49 0 21 0;
#X connect 50 0 28 0;
#X connect 51 0 43 0;
#X connect 52 0 2 0;
#X connect 53 0 22 0;
#X connect 54 0 29 0;
#X connect 55 0 44 0;
#X connect 56 0 5 0;
#X connect 57 0 23 0;
#X connect 58 0 7 0;
#X connect 59 0 24 0;
#X connect 60 0 30 0;
#X connect 61 0 45 0;
#X connect 62 0 9 0;
#X connect 63 0 25 0;
#X connect 64 0 31 0;
#X connect 65 0 46 0;
#X connect 66 0 11 0;
#X connect 67 0 26 0;
#X connect 68 0 32 0;
#X connect 69 0 47 0;
#X connect 70 0 13 0;
#X connect 71 0 27 0;
#X connect 73 0 74 0;
#X connect 73 1 74 1;
#X connect 73 2 74 2;
#X connect 73 3 74 3;
#X connect 74 0 72 0;
#X restore 183 177 pd MIDInotes;
#X obj 525 683 outlet~;
#X obj 545 643 outlet~;
#X obj 634 404 cnv 10 10 10 empty empty empty 20 12 0 14 -260183 -66577
0;
#X obj 1162 404 cnv 10 10 10 empty empty empty 20 12 0 14 -260183 -66577
0;
#X obj 536 25 loadbang;
#X msg 536 65 1;
#X msg 536 45 4;
#X text 843 479 Write me as an object into another patch.;
#X text 843 499 Then connect the orange blocks at the bottom to a [dac~].
;
#X connect 2 0 78 0;
#X connect 7 0 2 1;
#X connect 11 0 15 0;
#X connect 12 0 16 0;
#X connect 15 0 12 0;
#X connect 16 0 69 0;
#X connect 16 0 128 0;
#X connect 19 0 79 0;
#X connect 23 0 17 0;
#X connect 24 0 18 0;
#X connect 25 0 22 0;
#X connect 26 0 20 0;
#X connect 32 0 60 0;
#X connect 33 0 60 0;
#X connect 34 0 60 0;
#X connect 35 0 60 0;
#X connect 36 0 60 0;
#X connect 37 0 60 0;
#X connect 38 0 37 1;
#X connect 39 0 60 0;
#X connect 40 0 60 0;
#X connect 41 0 40 1;
#X connect 42 0 39 1;
#X connect 43 0 36 1;
#X connect 44 0 60 0;
#X connect 45 0 60 0;
#X connect 46 0 60 0;
#X connect 47 0 60 0;
#X connect 48 0 44 1;
#X connect 49 0 45 1;
#X connect 50 0 46 1;
#X connect 51 0 47 1;
#X connect 52 0 60 0;
#X connect 53 0 60 0;
#X connect 54 0 60 0;
#X connect 55 0 60 0;
#X connect 56 0 52 1;
#X connect 57 0 53 1;
#X connect 58 0 54 1;
#X connect 59 0 55 1;
#X connect 60 0 73 0;
#X connect 60 1 73 1;
#X connect 60 2 7 0;
#X connect 61 0 23 0;
#X connect 62 0 24 0;
#X connect 63 0 21 0;
#X connect 64 0 25 0;
#X connect 65 0 26 0;
#X connect 66 0 11 0;
#X connect 67 0 15 4;
#X connect 68 0 16 4;
#X connect 70 0 73 2;
#X connect 71 0 7 1;
#X connect 72 0 7 2;
#X connect 73 0 2 0;
#X connect 73 1 2 0;
#X connect 74 0 56 0;
#X connect 74 0 48 0;
#X connect 74 0 43 0;
#X connect 74 0 35 0;
#X connect 75 0 38 0;
#X connect 75 0 57 0;
#X connect 75 0 49 0;
#X connect 75 0 34 0;
#X connect 76 0 58 0;
#X connect 76 0 50 0;
#X connect 76 0 42 0;
#X connect 76 0 33 0;
#X connect 77 0 59 0;
#X connect 77 0 51 0;
#X connect 77 0 41 0;
#X connect 77 0 32 0;
#X connect 78 0 134 0;
#X connect 78 0 135 0;
#X connect 79 0 6 0;
#X connect 79 1 5 0;
#X connect 79 2 4 0;
#X connect 79 3 3 0;
#X connect 128 0 35 0;
#X connect 128 1 34 0;
#X connect 128 2 33 0;
#X connect 128 3 32 0;
#X connect 128 4 36 0;
#X connect 128 5 37 0;
#X connect 128 6 39 0;
#X connect 128 7 40 0;
#X connect 128 8 44 0;
#X connect 128 9 45 0;
#X connect 128 10 46 0;
#X connect 128 11 47 0;
#X connect 128 12 52 0;
#X connect 128 13 53 0;
#X connect 128 14 54 0;
#X connect 128 15 55 0;
#X connect 138 0 140 0;
#X connect 138 0 139 0;
#X connect 139 0 10 0;
#X connect 140 0 13 0;
#X coords 0 -1 1 1 540 356 1 633 59;
