#N canvas 603 283 785 542 12;
#X obj 101 101 cnv 15 200 90 empty empty empty 20 12 0 14 -183547 -66577
0;
#X obj 524 288 sel 1;
#X msg 538 316 0;
#X msg 524 347 0.5;
#X obj 113 112 tgl 25 0 p-gli empty empty 17 7 0 10 -262144 -1 -1 0
1;
#X obj 172 112 tgl 25 0 b4 g/rv GLITCH 40 15 0 12 -262144 -1 -1 0 1
;
#X obj 114 153 tgl 25 0 lo6 lo66 empty 17 7 0 10 -262144 -1 -1 0 1
;
#X obj 172 153 tgl 25 0 loss6 loss66 LOOPER 40 15 0 12 -262144 -1 -1
0 1;
#X msg 390 285 loop1.wav;
#X obj 331 253 del 5;
#X obj 358 220 t b b;
#X obj 390 255 del 5;
#X obj 664 268 *~ 0.5;
#X obj 631 320 *~ 0.5;
#X obj 139 113 cnv 15 15 23 empty empty empty 20 12 0 14 -52338 -66577
0;
#X obj 140 154 cnv 15 15 23 empty empty empty 20 12 0 14 -52338 -66577
0;
#N canvas 720 262 450 323 Pre-glitch6 0;
#X obj 85 262 *~;
#X obj 103 222 line~;
#X obj 192 82 tgl 25 0 empty empty empty 17 7 0 10 -262144 -1 -1 0
1;
#X msg 192 213 start;
#X msg 365 213 stop;
#X obj 192 116 sel 1;
#X obj 192 185 del 5;
#X obj 85 425 writesf~ 2;
#X obj 103 193 pack 0 10;
#X obj 192 54 inlet;
#X obj 35 46 inlet~;
#X obj 85 46 inlet~;
#X obj 365 177 outlet;
#X text 189 27 REC;
#X msg 250 213 open loop1.wav;
#X connect 0 0 7 0;
#X connect 0 0 7 1;
#X connect 1 0 0 1;
#X connect 2 0 5 0;
#X connect 2 0 8 0;
#X connect 3 0 7 0;
#X connect 4 0 7 0;
#X connect 5 0 14 0;
#X connect 5 0 6 0;
#X connect 5 1 4 0;
#X connect 5 1 12 0;
#X connect 6 0 3 0;
#X connect 8 0 1 0;
#X connect 9 0 2 0;
#X connect 10 0 0 0;
#X connect 11 0 0 0;
#X connect 14 0 7 0;
#X restore 358 191 pd Pre-glitch6;
#X obj 453 162 r p-gli;
#N canvas 509 167 450 323 Looper6 0;
#X obj 84 285 *~;
#X obj 102 245 line~;
#X obj 191 105 tgl 25 0 empty empty empty 17 7 0 10 -262144 -1 -1 0
1;
#X msg 191 236 start;
#X msg 308 262 stop;
#X obj 308 304 bng 15 250 50 0 empty empty empty 17 7 0 10 -262144
-1 -1;
#X obj 191 139 sel 1;
#X obj 191 208 del 5;
#X obj 84 398 writesf~ 2;
#X obj 308 359 readsf~;
#X obj 403 399 bng 15 250 50 0 empty empty empty 17 7 0 10 -262144
-1 -1;
#X obj 412 292 pack 0 10;
#X obj 102 216 pack 0 10;
#X obj 308 388 hip~ 10;
#X obj 191 59 inlet;
#X obj 380 113 inlet;
#X obj 34 69 inlet~;
#X obj 84 69 inlet~;
#X obj 308 427 outlet~;
#X obj 288 457 outlet~;
#X obj 403 437 outlet;
#X text 371 79 S/S;
#X obj 380 142 bng 15 250 50 0 empty empty empty 17 7 0 10 -262144
-1 -1;
#X obj 380 183 counter 1;
#X obj 380 220 sel 1;
#X text 178 32 REC;
#X msg 308 330 open loop2.wav \, 1;
#X msg 239 227 open loop2.wav;
#X connect 0 0 8 0;
#X connect 0 0 8 1;
#X connect 1 0 0 1;
#X connect 2 0 6 0;
#X connect 2 0 12 0;
#X connect 3 0 8 0;
#X connect 4 0 5 0;
#X connect 4 0 8 0;
#X connect 5 0 26 0;
#X connect 6 0 27 0;
#X connect 6 0 7 0;
#X connect 6 1 4 0;
#X connect 6 1 23 2;
#X connect 7 0 3 0;
#X connect 9 0 13 0;
#X connect 9 1 10 0;
#X connect 10 0 26 0;
#X connect 10 0 20 0;
#X connect 11 0 9 0;
#X connect 12 0 1 0;
#X connect 13 0 18 0;
#X connect 13 0 19 0;
#X connect 14 0 2 0;
#X connect 15 0 22 0;
#X connect 16 0 0 0;
#X connect 17 0 0 0;
#X connect 22 0 23 0;
#X connect 23 0 24 0;
#X connect 24 0 4 0;
#X connect 24 1 11 0;
#X connect 26 0 9 0;
#X connect 27 0 8 0;
#X restore 631 231 pd Looper6;
#X obj 675 175 r lo6;
#X obj 698 201 r loss6;
#X obj 331 282 s g/rv;
#X obj 524 260 r b4;
#N canvas 529 95 1125 933 aBe4t 0;
#X obj 161 235 soundfiler;
#X obj 283 534 *~;
#X obj 161 257 s \$0-sample_count;
#X obj 298 509 r \$0-sample_count;
#X obj 283 561 tabread4~ \$0-sampleloop;
#X obj 161 186 pack s \$0;
#X msg 161 214 read -resize \$1 \$2-sampleloop;
#X obj 461 27 r \$0-sample_count;
#X obj 461 51 t f f;
#X obj 461 161 /;
#N canvas 934 588 509 355 len2freq 0;
#X obj 18 9 inlet;
#X obj 18 33 t b f;
#X msg 18 61 1;
#X obj 32 96 /;
#X obj 32 171 outlet;
#X text 69 6 Calculate the frequency required in order to play a single
loop at the correct tempo.;
#X floatatom 130 136 12 0 0 0 - - -, f 12;
#X obj 130 166 / \$1;
#X obj 155 92 inlet;
#X floatatom 130 195 12 0 0 0 - - -, f 12;
#X obj 130 223 *;
#X floatatom 141 252 10 0 0 0 - - -, f 10;
#X connect 0 0 1 0;
#X connect 1 0 2 0;
#X connect 1 1 3 1;
#X connect 2 0 3 0;
#X connect 3 0 4 0;
#X connect 3 0 6 0;
#X connect 6 0 7 0;
#X connect 7 0 9 0;
#X connect 8 0 7 1;
#X connect 9 0 10 0;
#X connect 10 0 11 0;
#X restore 391 243 pd len2freq;
#X obj 613 311 t b f;
#X text 502 153 Calculate the length of the sample in seconds;
#X text 564 92 <- Change beat sample rate here;
#X text 715 345 Metro will bang every 8th note;
#X obj 601 434 random 2;
#X obj 601 457 sel 0;
#X text 703 438 50% change of changing the loop settings;
#N canvas 612 561 780 405 randloop 0;
#X obj 20 15 inlet~;
#X obj 94 19 inlet;
#X msg 128 102 2;
#X msg 163 102 4;
#X msg 199 102 8;
#X msg 236 102 16;
#X obj 21 182 *~;
#X obj 21 208 wrap~;
#X obj 21 240 /~;
#X obj 21 273 outlet~;
#X text 165 16 Make the phasor loop over a smaller \, randomly chosen
\, range.;
#X msg 177 229 2;
#X msg 214 230 0;
#X obj 177 273 outlet;
#X msg 94 102 1;
#X obj 94 74 route 0 1 2 3 4 5 6 7;
#X obj 94 47 random 8;
#X msg 271 102 24;
#X msg 305 102 32;
#X msg 340 102 40;
#X text 246 228 This is the chance that the next 8th note will have
different settings: 50% for 2nd to 24th notes \, 100% for 32nd or 40th
note loops. This lowers the chance of having prolonged periods of 64th/128th
notes.;
#X connect 0 0 6 0;
#X connect 1 0 16 0;
#X connect 2 0 6 1;
#X connect 2 0 8 1;
#X connect 2 0 11 0;
#X connect 3 0 6 1;
#X connect 3 0 8 1;
#X connect 3 0 11 0;
#X connect 4 0 6 1;
#X connect 4 0 8 1;
#X connect 4 0 11 0;
#X connect 5 0 6 1;
#X connect 5 0 8 1;
#X connect 5 0 11 0;
#X connect 6 0 7 0;
#X connect 7 0 8 0;
#X connect 8 0 9 0;
#X connect 11 0 13 0;
#X connect 12 0 13 0;
#X connect 14 0 6 1;
#X connect 14 0 8 1;
#X connect 14 0 11 0;
#X connect 15 0 14 0;
#X connect 15 1 2 0;
#X connect 15 2 3 0;
#X connect 15 3 4 0;
#X connect 15 4 5 0;
#X connect 15 5 17 0;
#X connect 15 6 18 0;
#X connect 15 7 19 0;
#X connect 16 0 15 0;
#X connect 17 0 6 1;
#X connect 17 0 8 1;
#X connect 17 0 11 0;
#X connect 18 0 6 1;
#X connect 18 0 8 1;
#X connect 18 0 12 0;
#X connect 19 0 6 1;
#X connect 19 0 8 1;
#X connect 19 0 12 0;
#X restore 283 419 pd randloop;
#N canvas 410 373 519 256 randoffset 0;
#X obj 23 12 inlet;
#X obj 81 127 outlet;
#X text 159 51 Randomize the playhead position to any 8th note by generating
an offset. This will be added to the phasor and wrapped to the valid
loop range.;
#X obj 96 14 inlet;
#X obj 23 63 random;
#X obj 81 99 /;
#X obj 96 38 * 8;
#X connect 0 0 4 0;
#X connect 3 0 6 0;
#X connect 4 0 5 0;
#X connect 5 0 1 0;
#X connect 6 0 4 1;
#X connect 6 0 5 1;
#X restore 601 486 pd randoffset;
#X obj 283 451 +~;
#X obj 283 479 wrap~;
#X obj 283 391 phasor~;
#X text 708 488 Randomize playhead position;
#X text 111 419 Randomize loop settings;
#X obj 78 176 loadbang;
#X obj 78 228 s \$0-bars;
#X obj 689 193 r \$0-bars;
#X obj 613 288 *;
#X obj 641 257 /;
#X obj 613 209 t b b f;
#X text 44 297 Number of bars in loop;
#X obj 493 121 t b f;
#X obj 283 732 *~;
#X obj 412 601 vsl 15 128 0 1 0 0 empty empty empty 0 -9 0 10 -262144
-1 -1 0 1;
#X obj 601 345 metro;
#X msg 629 233 250;
#X obj 601 515 line~;
#X obj 283 366 *;
#X floatatom 283 342 8 0 0 0 - - -, f 8;
#X obj 323 671 catch~ m1;
#X obj 334 695 catch~ m2;
#X floatatom 645 346 8 0 0 0 - - -, f 8;
#X msg 78 203 4;
#X msg 493 75 44100;
#N canvas 0 0 450 300 tab 0;
#X obj 34 234 hsl 295 8 0 119488 0 0 empty empty empty -2 -8 0 10 -262144
-1 -1 0 1;
#X msg 71 301 range 0 \$1;
#X obj 71 277 r \$0-sample_count;
#X obj 71 255 r \$0-sample_position;
#N canvas 0 22 450 300 (subpatch) 0;
#X array \$0-sampleloop 119488 float 0 black black;
#X coords 0 1 119487 -1 300 200 1;
#X restore 34 32 graph;
#X connect 1 0 0 0;
#X connect 2 0 1 0;
#X connect 3 0 0 0;
#X restore 49 384 pd tab;
#X obj 283 831 outlet~;
#X obj 303 801 outlet~;
#X obj 755 669 inlet;
#X text 229 56 Where the BPM value comes in;
#X text 700 635 Where the VOL value comes in;
#X obj 100 93 inlet;
#N canvas 925 413 504 620 UpDown 0;
#X obj 135 506 t b f;
#X msg 66 449 1;
#X obj 66 181 t;
#X obj 97 13 inlet;
#X obj 135 575 outlet;
#X obj 167 545 outlet;
#X obj 26 155 counter 10;
#X obj 66 373 t b b;
#X obj 90 346 t b b;
#X obj 115 320 t b b;
#X obj 273 480 s spam;
#X obj 93 125 r spam;
#X obj 66 234 route 0 1 2;
#X obj 66 209 random 3;
#X msg 312 402 2;
#X msg 323 432 28;
#X msg 291 369 12;
#X msg 90 422 2;
#X msg 115 399 0.5;
#X connect 0 0 4 0;
#X connect 0 1 5 0;
#X connect 1 0 0 0;
#X connect 2 0 13 0;
#X connect 3 0 6 0;
#X connect 6 2 2 0;
#X connect 7 0 1 0;
#X connect 7 1 15 0;
#X connect 8 0 17 0;
#X connect 8 1 14 0;
#X connect 9 0 18 0;
#X connect 9 1 16 0;
#X connect 11 0 6 4;
#X connect 12 0 7 0;
#X connect 12 1 8 0;
#X connect 12 2 9 0;
#X connect 13 0 12 0;
#X connect 14 0 10 0;
#X connect 15 0 10 0;
#X connect 16 0 10 0;
#X connect 17 0 0 0;
#X connect 18 0 0 0;
#X restore 475 390 pd UpDown;
#X connect 0 0 2 0;
#X connect 1 0 4 0;
#X connect 3 0 1 1;
#X connect 4 0 33 0;
#X connect 5 0 6 0;
#X connect 6 0 0 0;
#X connect 7 0 8 0;
#X connect 8 0 9 0;
#X connect 8 1 44 0;
#X connect 9 0 10 0;
#X connect 9 0 28 0;
#X connect 10 0 39 0;
#X connect 11 0 35 0;
#X connect 11 1 35 1;
#X connect 11 1 42 0;
#X connect 15 0 16 0;
#X connect 16 0 19 0;
#X connect 16 0 18 1;
#X connect 18 0 20 0;
#X connect 18 1 15 1;
#X connect 19 0 37 0;
#X connect 20 0 21 0;
#X connect 21 0 1 0;
#X connect 22 0 18 0;
#X connect 25 0 43 0;
#X connect 27 0 30 0;
#X connect 27 0 19 1;
#X connect 28 0 11 0;
#X connect 29 0 28 1;
#X connect 30 0 28 0;
#X connect 30 1 36 0;
#X connect 30 2 29 1;
#X connect 32 0 9 0;
#X connect 32 1 9 1;
#X connect 33 0 46 0;
#X connect 33 0 47 0;
#X connect 34 0 33 1;
#X connect 35 0 15 0;
#X connect 35 0 52 0;
#X connect 36 0 29 0;
#X connect 37 0 20 1;
#X connect 38 0 22 0;
#X connect 39 0 38 0;
#X connect 40 0 46 0;
#X connect 41 0 47 0;
#X connect 42 0 10 1;
#X connect 43 0 26 0;
#X connect 44 0 32 0;
#X connect 48 0 34 0;
#X connect 51 0 5 0;
#X connect 52 0 39 0;
#X connect 52 1 38 1;
#X restore 390 319 pd aBe4t;
#X obj 506 421 outlet~ L;
#X obj 594 421 outlet~ R;
#X obj 101 181 cnv 10 10 10 empty empty empty 20 12 0 14 -260183 -66577
0;
#X obj 291 181 cnv 10 10 10 empty empty empty 20 12 0 14 -260183 -66577
0;
#X obj 291 101 cnv 10 10 10 empty empty empty 20 12 0 14 -260183 -66577
0;
#X obj 101 101 cnv 10 10 10 empty empty empty 20 12 0 14 -260183 -66577
0;
#X obj 506 18 inlet~ L;
#X obj 594 18 inlet~ R;
#X text 40 391 Write me as an object into another patch.;
#X text 40 411 Input your [adc~] objects into the orange blocks at
the top;
#X text 40 431 and connect the orange blocks at the bottom to a [dac~].
;
#X text 40 451 The buttons on the left are for recording \, the ones
on the;
#X text 40 471 right to start/stop the loop.;
#X connect 1 0 3 0;
#X connect 1 1 2 0;
#X connect 2 0 23 1;
#X connect 3 0 23 1;
#X connect 8 0 23 0;
#X connect 9 0 21 0;
#X connect 10 0 9 0;
#X connect 10 1 11 0;
#X connect 11 0 8 0;
#X connect 12 0 25 0;
#X connect 13 0 24 0;
#X connect 16 0 10 0;
#X connect 17 0 16 2;
#X connect 18 0 13 0;
#X connect 18 1 12 0;
#X connect 19 0 18 2;
#X connect 20 0 18 3;
#X connect 22 0 1 0;
#X connect 23 0 24 0;
#X connect 23 1 25 0;
#X connect 30 0 16 0;
#X connect 30 0 18 0;
#X connect 30 0 24 0;
#X connect 31 0 16 1;
#X connect 31 0 18 1;
#X connect 31 0 25 0;
#X coords 0 -1 1 1 202 92 1 100 100;
