#N canvas 425 170 924 710 12;
#X obj 640 41 cnv 15 158 222 empty empty empty 20 12 0 14 -39473 -66577
0;
#X obj 84 273 vcf~;
#X obj 127 273 vcf~;
#X obj 150 223 sig~;
#X obj 112 307 hip~;
#X obj 155 307 hip~;
#X obj 112 337 lop~;
#X obj 155 337 lop~;
#X obj 228 163 tgl 15 0 empty empty empty 17 7 0 10 -262144 -1 -1 1
1;
#X obj 84 228 *~;
#X obj 114 228 *~;
#X obj 654 57 vsl 15 128 0 1 0 0 volu empty empty 0 -9 0 10 -262144
-1 -1 0 1;
#X obj 228 134 loadbang;
#X text 408 265 RANDOM DYNAMIC;
#X text 225 107 FILTER FREQ;
#X obj 360 292 s number2;
#X obj 150 195 r number2;
#X obj 228 188 metro 110;
#X obj 378 168 s number6;
#X obj 383 321 r number6;
#X obj 378 140 * 0.78;
#X obj 388 82 * 78;
#X obj 388 110 s number7;
#X obj 227 352 r number7;
#X obj 383 348 + 35;
#X obj 472 234 s number8;
#X obj 489 177 s number9;
#X obj 198 382 r number9;
#X obj 198 411 + 70;
#X obj 431 348 r number9;
#X obj 502 122 s number10;
#X obj 413 375 r number10;
#X obj 413 404 /;
#X obj 230 319 + 1;
#X obj 248 293 r number10;
#X obj 444 402 r number8;
#X obj 392 232 r number8;
#X text 433 20 REVERB PARAMETERS;
#X obj 230 268 r number2;
#X text 205 566 OUTPUT REVERB EFFECT;
#X obj 114 157 inlet~;
#X obj 208 522 outlet~;
#X obj 343 516 outlet~;
#X obj 84 131 inlet~;
#X obj 112 440 rev3~ 100 175 3000 20;
#X obj 293 430 rev3~ 100 90 2750 37.5;
#X obj 472 206 random 200;
#X obj 502 95 random 15000;
#X obj 489 150 random 50;
#X obj 472 58 t;
#X obj 383 405 +;
#X obj 360 257 * 170;
#X obj 360 231 / 6;
#X obj 288 163 r number8;
#X text 60 104 AUDIO INPUT;
#X obj 228 216 random 60;
#X obj 208 489 *~ 8;
#X obj 343 484 *~ 8;
#X obj 679 87 vsl 15 128 0 127 0 0 par1 empty empty 0 -9 0 10 -262144
-1 -1 0 1;
#X obj 708 119 vsl 15 128 0 127 0 0 par2 empty empty 0 -9 0 10 -262144
-1 -1 0 1;
#X obj 378 20 r par1;
#X obj 360 202 r par2;
#X obj 778 133 cnv 15 20 130 empty empty empty 20 12 0 14 -179826 -66577
0;
#X text 669 57 VOLUME;
#X text 694 87 PARAM 1;
#X text 723 119 PARAM2;
#X obj 757 183 cnv 15 20 80 empty empty empty 20 12 0 14 -220985 -66577
0;
#X obj 788 253 cnv 10 10 10 empty empty empty 20 12 0 14 -260183 -66577
0;
#X obj 640 253 cnv 10 10 10 empty empty empty 20 12 0 14 -260183 -66577
0;
#X obj 640 41 cnv 10 10 10 empty empty empty 20 12 0 14 -260183 -66577
0;
#X obj 788 41 cnv 10 10 10 empty empty empty 20 12 0 14 -260183 -66577
0;
#X obj 29 131 r volu;
#X text 453 526 Write me as an object into another patch.;
#X text 453 546 Input your [adc~] objects into the orange blocks at
the top;
#X text 453 566 and connect the orange blocks at the bottom to a [dac~].
;
#X text 453 586 PARAM 1 & 2 trigger random numbers to change the;
#X text 453 606 reverb's filter settings.;
#X connect 1 1 4 0;
#X connect 2 1 5 0;
#X connect 3 0 1 1;
#X connect 3 0 2 1;
#X connect 4 0 6 0;
#X connect 5 0 7 0;
#X connect 6 0 44 0;
#X connect 7 0 45 0;
#X connect 8 0 17 0;
#X connect 9 0 1 0;
#X connect 10 0 2 0;
#X connect 12 0 8 0;
#X connect 16 0 3 0;
#X connect 17 0 55 0;
#X connect 19 0 24 0;
#X connect 19 0 44 5;
#X connect 20 0 18 0;
#X connect 21 0 22 0;
#X connect 23 0 44 4;
#X connect 24 0 50 0;
#X connect 27 0 28 0;
#X connect 28 0 44 3;
#X connect 29 0 50 1;
#X connect 29 0 32 1;
#X connect 31 0 32 0;
#X connect 32 0 45 4;
#X connect 33 0 5 1;
#X connect 33 0 4 1;
#X connect 34 0 33 1;
#X connect 34 0 7 1;
#X connect 34 0 6 1;
#X connect 35 0 45 5;
#X connect 36 0 51 1;
#X connect 38 0 33 0;
#X connect 40 0 10 0;
#X connect 43 0 9 0;
#X connect 44 0 57 0;
#X connect 44 2 56 0;
#X connect 45 1 57 0;
#X connect 45 3 56 0;
#X connect 46 0 25 0;
#X connect 47 0 30 0;
#X connect 48 0 26 0;
#X connect 49 0 46 0;
#X connect 49 0 48 0;
#X connect 49 0 47 0;
#X connect 50 0 45 3;
#X connect 51 0 15 0;
#X connect 52 0 51 0;
#X connect 53 0 17 1;
#X connect 55 0 2 2;
#X connect 55 0 1 2;
#X connect 56 0 41 0;
#X connect 57 0 42 0;
#X connect 60 0 49 0;
#X connect 60 0 21 0;
#X connect 60 0 20 0;
#X connect 61 0 52 0;
#X connect 71 0 9 1;
#X connect 71 0 10 1;
#X coords 0 -1 1 1 160 224 1 639 40;
